<svg id="Layer_1" data-name="Layer 1" xmlns="http://www.w3.org/2000/svg" viewBox="0 0 467.15 381.3"><defs><style>.cls-1{fill:#fff;}</style></defs><title>khalil fichier</title><path class="cls-1" d="M146.54,283.74" transform="translate(-30.85 -53.62)"/><path class="cls-1" d="M147.48,281.65a3,3,0,0,0-.57.19.69.69,0,0,0-.24.27,1.07,1.07,0,0,0-.1.4" transform="translate(-30.85 -53.62)"/><path class="cls-1" d="M498,67.37l-.19,37.76-1.52,309.24H456.66V150.86h0c-30.46,38.77-60.25,78-89,118.09-12.33,17.23-24.84,34.34-38.4,50.65-.22.29-.46.59-.71.86-.24-.27-.48-.57-.7-.86C314.26,303.3,301.75,286.19,289.4,269c-28.74-40.06-58.53-79.32-89-118.09-8.84-11.23-17.73-22.46-27.63-32.77-14.63-15.16-30.93-28.27-49.48-38.36-13-7.07-27-11.32-41.54-14a139.9,139.9,0,0,0-28.9-2.37,118.58,118.58,0,0,0-20.57,2.17c-.39.07-.77.12-1.32.19-.24-2.12-.26-2.14,1.41-2.69a177.58,177.58,0,0,1,27.67-6.86,184.4,184.4,0,0,1,38.2-2.34c37.8,1.62,72.77,12,104,33.82C212.76,95,221.86,104,230.75,113.16q14.52,15,27.93,31c-.35.6-.66,1.19-1,1.79a58.4,58.4,0,0,0-6,35.51q2.68,18.3,16,35.61,12.63,16.47,28.91,24.16a55.54,55.54,0,0,0,33.08,5q16.8-2.69,35.63-17.14,15.3-11.73,23.72-23.86t15.32-33.15l-14-18.26c11.44-14,23.36-27.64,36-40.68,8.89-9.2,18-18.19,28.49-25.55a181.77,181.77,0,0,1,40.46-21.33l1.26-.47A1.55,1.55,0,0,1,498,67.37Z" transform="translate(-30.85 -53.62)"/><path class="cls-1" d="M329.23,319.61v1.72c-.24-.29-.48-.56-.71-.86C328.77,320.2,329,319.9,329.23,319.61Z" transform="translate(-30.85 -53.62)"/><path class="cls-1" d="M328.52,320.47c-.22.3-.46.57-.7.86v-1.72C328,319.9,328.28,320.2,328.52,320.47Z" transform="translate(-30.85 -53.62)"/><path class="cls-1" d="M496.23,424.09a209.1,209.1,0,0,1-32,7.92,212,212,0,0,1-44.14,2.71c-43.7-1.88-84.13-13.87-120.23-39.1-12.16-8.51-22.65-18.91-32.94-29.54-23.7-24.52-45.31-50.79-65.83-78-15.35-20.36-30.87-40.61-46.33-60.9-.6-.79-1.25-1.55-1.84-2.29a3.75,3.75,0,0,0-.4.12.45.45,0,0,0-.15.19.59.59,0,0,0-.07.26,5.24,5.24,0,0,0,0,.55V363.94a1.27,1.27,0,0,1,0,.28v.27a2.62,2.62,0,0,1,0,.28,2.56,2.56,0,0,1,0,.27.77.77,0,0,1-.07.26s0,.05,0,.09v49H113.8V361H114c-.48-36.42-.62-271-.07-275.5.92.7,1.67,1.27,2.4,1.89C128.86,98,140,110.06,150.69,122.6c17.23,20.3,32.94,41.78,48.45,63.4,33.21,46.31,67.65,91.69,102.87,136.51,10.2,13,20.47,25.94,31.94,37.85,16.89,17.55,35.73,32.7,57.18,44.36,15,8.19,31.26,13.1,48,16.23a160.44,160.44,0,0,0,33.39,2.76,137.58,137.58,0,0,0,23.78-2.52c.44-.08.91-.14,1.55-.22C498.14,423.41,498.16,423.45,496.23,424.09Z" transform="translate(-30.85 -53.62)"/><path class="cls-1" d="M334.25,186.6,319.4,167.24l44.42-34.09,30.44,39.67Q388.17,191.3,380.78,202t-20.85,21Q343.37,235.65,328.6,238a48.68,48.68,0,0,1-29.09-4.4q-14.31-6.75-25.42-21.23-11.68-15.22-14-31.31a51.38,51.38,0,0,1,5.28-31.23q6-11.74,22-24,15.42-11.83,25.21-14.91a37.79,37.79,0,0,1,19.34-1.08,48.67,48.67,0,0,1,19,9.07l-23.94,26.23a18.9,18.9,0,0,0-12-3.61c-4.16.24-8.35,2-12.58,5.22q-9.47,7.26-10,18.14T302.66,190q11.59,15.1,22.24,17.22t20.8-5.68a38.27,38.27,0,0,0,8.13-8.46,62.67,62.67,0,0,0,6.37-12.45l-6.72-8.76Z" transform="translate(-30.85 -53.62)"/></svg>